{"title":"Beaconsfield 2012 DVDRip XViD juggs","uid":8684836,"size":745782987,"categoryP":"video","categoryS":"movies","magnet":"?xt=urn:btih:edd5917a8ebcc1f8b0b7b70cd2e3ec1c80e0bbd3&amp;dn=Beaconsfield+2012+DVDRip+XViD+juggs&amp;tr=udp%3A%2F%2Ftracker.openbittorrent.com%3A80&amp;tr=udp%3A%2F%2Fopen.demonii.com%3A1337&amp;tr=udp%3A%2F%2Ftracker.coppersurfer.tk%3A6969&amp;tr=udp%3A%2F%2Fexodus.desync.com%3A6969","seeders":1,"leechers":0,"uploader":"juggs99","files":3,"time":1373769671,"description":"Source : F0RFUN(Thanks)\n &lt;a href=&quot;\nhttp://www.imdb.com/title/tt1975368&quot; rel=&quot;nofollow&quot; target=&quot;_NEW&quot;&gt;\nhttp://www.imdb.com/title/tt1975368&lt;/a&gt;\n\nFormat : AVI\nFormat/Info : Audio Video Interleave\nFile size : 698 MiB\nDuration : 1h 51mn\nOverall bit rate : 878 Kbps\nWriting library : VirtualDub build 32842/release\n\nVideo\nID : 0\nFormat : MPEG-4 Visual\nFormat profile : Advanced Simple@L5\nFormat settings, BVOP : 2\nFormat settings, QPel : No\nFormat settings, GMC : No warppoints\nFormat settings, Matrix : Default (H.263)\nMuxing mode : Packed bitstream\nCodec ID : XVID\nCodec ID/Hint : XviD\nDuration : 1h 51mn\nBit rate : 741 Kbps\nWidth : 640 pixels\nHeight : 352 pixels\nDisplay aspect ratio : 16:9\nFrame rate : 25.000 fps\nColor space : YUV\nChroma subsampling : 4:2:0\nBit depth : 8 bits\nScan type : Progressive\nCompression mode : Lossy\nBits/(Pixel*Frame) : 0.131\nStream size : 588 MiB (84%)\nWriting library : XviD 64\n\nAudio\nID : 1\nFormat : MPEG Audio\nFormat version : Version 1\nFormat profile : Layer 3\nCodec ID : 55\nCodec ID/Hint : MP3\nDuration : 1h 51mn\nBit rate mode : Constant\nBit rate : 128 Kbps\nChannel(s) : 2 channels\nSampling rate : 48.0 KHz\nCompression mode : Lossy\nStream size : 102 MiB (15%)\nAlignment : Split accross interleaves\nInterleave, duration : 40 ms (1.00 video frame)\nInterleave, preload duration : 500 ms\nWriting library : LAME3.99r\n\nPlot\nThe true story of Brad Webb and Todd Russell, who were trapped nearly a kilometer below the surface.\n\n &lt;a href=&quot;\nhttp://s17.postimg.org/p8retwukf/image.png&quot; rel=&quot;nofollow&quot; target=&quot;_NEW&quot;&gt;\nhttp://s17.postimg.org/p8retwukf/image.png&lt;/a&gt; &lt;a href=&quot;\nhttp://s17.postimg.org/nfoi5l9dr/image.png&quot; rel=&quot;nofollow&quot; target=&quot;_NEW&quot;&gt;\nhttp://s17.postimg.org/nfoi5l9dr/image.png&lt;/a&gt; &lt;a href=&quot;\nhttp://s17.postimg.org/52nwv0ywv/image.png&quot; rel=&quot;nofollow&quot; target=&quot;_NEW&quot;&gt;\nhttp://s17.postimg.org/52nwv0ywv/image.png&lt;/a&gt;","torrent":{"xt":"urn:btih:edd5917a8ebcc1f8b0b7b70cd2e3ec1c80e0bbd3","amp;dn":"Beaconsfield+2012+DVDRip+XViD+juggs","amp;tr":["udp%3A%2F%2Ftracker.openbittorrent.com%3A80","udp%3A%2F%2Fopen.demonii.com%3A1337","udp%3A%2F%2Ftracker.coppersurfer.tk%3A6969","udp%3A%2F%2Fexodus.desync.com%3A6969"],"infoHash":"edd5917a8ebcc1f8b0b7b70cd2e3ec1c80e0bbd3","infoHashBuffer":{"type":"Buffer","data":[237,213,145,122,142,188,193,248,176,183,183,12,210,227,236,28,128,224,187,211]},"announce":[],"urlList":[]}}